<?xml version="1.0" encoding="utf-8" standalone="no"?>
<!DOCTYPE svg PUBLIC "-//W3C//DTD SVG 1.1//EN"
  "http://www.w3.org/Graphics/SVG/1.1/DTD/svg11.dtd">
<svg xmlns:xlink="http://www.w3.org/1999/xlink" width="360pt" height="360pt" viewBox="0 0 360 360" xmlns="http://www.w3.org/2000/svg" version="1.1">
 <metadata>
  <rdf:RDF xmlns:dc="http://purl.org/dc/elements/1.1/" xmlns:cc="http://creativecommons.org/ns#" xmlns:rdf="http://www.w3.org/1999/02/22-rdf-syntax-ns#">
   <cc:Work>
    <dc:type rdf:resource="http://purl.org/dc/dcmitype/StillImage"/>
    <dc:date>2025-04-24T13:25:55.536259</dc:date>
    <dc:format>image/svg+xml</dc:format>
    <dc:creator>
     <cc:Agent>
      <dc:title>Matplotlib v3.10.0, https://matplotlib.org/</dc:title>
     </cc:Agent>
    </dc:creator>
   </cc:Work>
  </rdf:RDF>
 </metadata>
 <defs>
  <style type="text/css">*{stroke-linejoin: round; stroke-linecap: butt}</style>
 </defs>
 <g id="figure_1">
  <g id="patch_1">
   <path d="M 0 360 
L 360 360 
L 360 0 
L 0 0 
z
" style="fill: #ffffff"/>
  </g>
  <g id="axes_1">
   <g id="patch_2">
    <path d="M 64.8 306 
L 345.6 306 
L 345.6 32.4 
L 64.8 32.4 
z
" style="fill: #ffffff"/>
   </g>
   <g id="FillBetweenPolyCollection_1">
    <defs>
     <path id="m7c6207d84a" d="M 205.203697 -66.436364 
L 205.196303 -66.436364 
L 205.07426 -68.94876 
L 204.571391 -71.461157 
L 200.038828 -73.973554 
L 176.202098 -76.48595 
L 120.014679 -78.998347 
L 95.149422 -81.510744 
L 92.88 -84.02314 
L 99.784097 -86.535537 
L 110.408654 -89.047934 
L 121.549503 -91.560331 
L 132.000961 -94.072727 
L 142.153634 -96.585124 
L 150.683624 -99.097521 
L 158.850771 -101.609917 
L 165.894567 -104.122314 
L 172.065624 -106.634711 
L 177.401489 -109.147107 
L 181.969642 -111.659504 
L 185.945777 -114.171901 
L 189.137022 -116.684298 
L 191.885713 -119.196694 
L 193.918937 -121.709091 
L 195.852286 -124.221488 
L 197.280818 -126.733884 
L 198.627059 -129.246281 
L 199.730602 -131.758678 
L 200.566577 -134.271074 
L 201.231649 -136.783471 
L 201.865358 -139.295868 
L 202.334539 -141.808264 
L 202.772536 -144.320661 
L 203.115483 -146.833058 
L 203.464067 -149.345455 
L 203.72602 -151.857851 
L 203.925523 -154.370248 
L 204.121708 -156.882645 
L 204.24614 -159.395041 
L 204.414439 -161.907438 
L 204.554087 -164.419835 
L 204.631832 -166.932231 
L 204.728231 -169.444628 
L 204.777998 -171.957025 
L 204.851025 -174.469421 
L 204.885845 -176.981818 
L 204.943671 -179.494215 
L 204.973911 -182.006612 
L 205.018829 -184.519008 
L 205.03789 -187.031405 
L 205.067278 -189.543802 
L 205.087673 -192.056198 
L 205.102015 -194.568595 
L 205.10973 -197.080992 
L 205.128477 -199.593388 
L 205.142704 -202.105785 
L 205.150231 -204.618182 
L 205.154455 -207.130579 
L 205.15808 -209.642975 
L 205.165357 -212.155372 
L 205.174921 -214.667769 
L 205.178665 -217.180165 
L 205.173958 -219.692562 
L 205.180967 -222.204959 
L 205.184471 -224.717355 
L 205.187133 -227.229752 
L 205.188969 -229.742149 
L 205.191927 -232.254545 
L 205.190028 -234.766942 
L 205.193879 -237.279339 
L 205.196168 -239.791736 
L 205.193535 -242.304132 
L 205.193861 -244.816529 
L 205.197215 -247.328926 
L 205.195359 -249.841322 
L 205.196867 -252.353719 
L 205.19669 -254.866116 
L 205.197345 -257.378512 
L 205.199441 -259.890909 
L 205.198974 -262.403306 
L 205.197312 -264.915702 
L 205.197435 -267.428099 
L 205.199164 -269.940496 
L 205.199045 -272.452893 
L 205.198758 -274.965289 
L 205.199543 -277.477686 
L 205.199843 -279.990083 
L 205.199751 -282.502479 
L 205.199243 -285.014876 
L 205.199217 -287.527273 
L 205.19991 -290.039669 
L 205.199478 -292.552066 
L 205.199182 -295.064463 
L 205.199858 -297.57686 
L 205.199196 -300.089256 
L 205.199997 -302.601653 
L 205.2 -305.11405 
L 205.2 -307.626446 
L 205.2 -310.138843 
L 205.199723 -312.65124 
L 205.199928 -315.163636 
L 205.200072 -315.163636 
L 205.200072 -315.163636 
L 205.200277 -312.65124 
L 205.2 -310.138843 
L 205.2 -307.626446 
L 205.2 -305.11405 
L 205.200003 -302.601653 
L 205.200804 -300.089256 
L 205.200142 -297.57686 
L 205.200818 -295.064463 
L 205.200522 -292.552066 
L 205.20009 -290.039669 
L 205.200783 -287.527273 
L 205.200757 -285.014876 
L 205.200249 -282.502479 
L 205.200157 -279.990083 
L 205.200457 -277.477686 
L 205.201242 -274.965289 
L 205.200955 -272.452893 
L 205.200836 -269.940496 
L 205.202565 -267.428099 
L 205.202688 -264.915702 
L 205.201026 -262.403306 
L 205.200559 -259.890909 
L 205.202655 -257.378512 
L 205.20331 -254.866116 
L 205.203133 -252.353719 
L 205.204641 -249.841322 
L 205.202785 -247.328926 
L 205.206139 -244.816529 
L 205.206465 -242.304132 
L 205.203832 -239.791736 
L 205.206121 -237.279339 
L 205.209972 -234.766942 
L 205.208073 -232.254545 
L 205.211031 -229.742149 
L 205.212867 -227.229752 
L 205.215529 -224.717355 
L 205.219033 -222.204959 
L 205.226042 -219.692562 
L 205.221335 -217.180165 
L 205.225079 -214.667769 
L 205.234643 -212.155372 
L 205.24192 -209.642975 
L 205.245545 -207.130579 
L 205.249769 -204.618182 
L 205.257296 -202.105785 
L 205.271523 -199.593388 
L 205.29027 -197.080992 
L 205.297985 -194.568595 
L 205.312327 -192.056198 
L 205.332722 -189.543802 
L 205.36211 -187.031405 
L 205.381171 -184.519008 
L 205.426089 -182.006612 
L 205.456329 -179.494215 
L 205.514155 -176.981818 
L 205.548975 -174.469421 
L 205.622002 -171.957025 
L 205.671769 -169.444628 
L 205.768168 -166.932231 
L 205.845913 -164.419835 
L 205.985561 -161.907438 
L 206.15386 -159.395041 
L 206.278292 -156.882645 
L 206.474477 -154.370248 
L 206.67398 -151.857851 
L 206.935933 -149.345455 
L 207.284517 -146.833058 
L 207.627464 -144.320661 
L 208.065461 -141.808264 
L 208.534642 -139.295868 
L 209.168351 -136.783471 
L 209.833423 -134.271074 
L 210.669398 -131.758678 
L 211.772941 -129.246281 
L 213.119182 -126.733884 
L 214.547714 -124.221488 
L 216.481063 -121.709091 
L 218.514287 -119.196694 
L 221.262978 -116.684298 
L 224.454223 -114.171901 
L 228.430358 -111.659504 
L 232.998511 -109.147107 
L 238.334376 -106.634711 
L 244.505433 -104.122314 
L 251.549229 -101.609917 
L 259.716376 -99.097521 
L 268.246366 -96.585124 
L 278.399039 -94.072727 
L 288.850497 -91.560331 
L 299.991346 -89.047934 
L 310.615903 -86.535537 
L 317.52 -84.02314 
L 315.250578 -81.510744 
L 290.385321 -78.998347 
L 234.197902 -76.48595 
L 210.361172 -73.973554 
L 205.828609 -71.461157 
L 205.32574 -68.94876 
L 205.203697 -66.436364 
z
" style="stroke: #367cb7; stroke-width: 2"/>
    </defs>
    <g clip-path="url(#p79daa27c11)">
     <use xlink:href="#m7c6207d84a" x="0" y="360" style="fill: #edf6ff; stroke: #367cb7; stroke-width: 2"/>
    </g>
   </g>
   <g id="matplotlib.axis_1">
    <g id="xtick_1">
     <g id="line2d_1">
      <defs>
       <path id="m605ac74fff" d="M 0 0 
L 0 3.5 
" style="stroke: #000000; stroke-width: 0.8"/>
      </defs>
      <g>
       <use xlink:href="#m605ac74fff" x="205.2" y="306" style="stroke: #000000; stroke-width: 0.8"/>
      </g>
     </g>
    </g>
    <g id="text_1">
     <!-- Single Cells -->
     <g transform="translate(173.519062 325.735625) scale(0.12 -0.12)">
      <defs>
       <path id="ArialMT-53" d="M 288 1472 
L 859 1522 
Q 900 1178 1048 958 
Q 1197 738 1509 602 
Q 1822 466 2213 466 
Q 2559 466 2825 569 
Q 3091 672 3220 851 
Q 3350 1031 3350 1244 
Q 3350 1459 3225 1620 
Q 3100 1781 2813 1891 
Q 2628 1963 1997 2114 
Q 1366 2266 1113 2400 
Q 784 2572 623 2826 
Q 463 3081 463 3397 
Q 463 3744 659 4045 
Q 856 4347 1234 4503 
Q 1613 4659 2075 4659 
Q 2584 4659 2973 4495 
Q 3363 4331 3572 4012 
Q 3781 3694 3797 3291 
L 3216 3247 
Q 3169 3681 2898 3903 
Q 2628 4125 2100 4125 
Q 1550 4125 1298 3923 
Q 1047 3722 1047 3438 
Q 1047 3191 1225 3031 
Q 1400 2872 2139 2705 
Q 2878 2538 3153 2413 
Q 3553 2228 3743 1945 
Q 3934 1663 3934 1294 
Q 3934 928 3725 604 
Q 3516 281 3123 101 
Q 2731 -78 2241 -78 
Q 1619 -78 1198 103 
Q 778 284 539 648 
Q 300 1013 288 1472 
z
" transform="scale(0.015625)"/>
       <path id="ArialMT-69" d="M 425 3934 
L 425 4581 
L 988 4581 
L 988 3934 
L 425 3934 
z
M 425 0 
L 425 3319 
L 988 3319 
L 988 0 
L 425 0 
z
" transform="scale(0.015625)"/>
       <path id="ArialMT-6e" d="M 422 0 
L 422 3319 
L 928 3319 
L 928 2847 
Q 1294 3394 1984 3394 
Q 2284 3394 2536 3286 
Q 2788 3178 2913 3003 
Q 3038 2828 3088 2588 
Q 3119 2431 3119 2041 
L 3119 0 
L 2556 0 
L 2556 2019 
Q 2556 2363 2490 2533 
Q 2425 2703 2258 2804 
Q 2091 2906 1866 2906 
Q 1506 2906 1245 2678 
Q 984 2450 984 1813 
L 984 0 
L 422 0 
z
" transform="scale(0.015625)"/>
       <path id="ArialMT-67" d="M 319 -275 
L 866 -356 
Q 900 -609 1056 -725 
Q 1266 -881 1628 -881 
Q 2019 -881 2231 -725 
Q 2444 -569 2519 -288 
Q 2563 -116 2559 434 
Q 2191 0 1641 0 
Q 956 0 581 494 
Q 206 988 206 1678 
Q 206 2153 378 2554 
Q 550 2956 876 3175 
Q 1203 3394 1644 3394 
Q 2231 3394 2613 2919 
L 2613 3319 
L 3131 3319 
L 3131 450 
Q 3131 -325 2973 -648 
Q 2816 -972 2473 -1159 
Q 2131 -1347 1631 -1347 
Q 1038 -1347 672 -1080 
Q 306 -813 319 -275 
z
M 784 1719 
Q 784 1066 1043 766 
Q 1303 466 1694 466 
Q 2081 466 2343 764 
Q 2606 1063 2606 1700 
Q 2606 2309 2336 2618 
Q 2066 2928 1684 2928 
Q 1309 2928 1046 2623 
Q 784 2319 784 1719 
z
" transform="scale(0.015625)"/>
       <path id="ArialMT-6c" d="M 409 0 
L 409 4581 
L 972 4581 
L 972 0 
L 409 0 
z
" transform="scale(0.015625)"/>
       <path id="ArialMT-65" d="M 2694 1069 
L 3275 997 
Q 3138 488 2766 206 
Q 2394 -75 1816 -75 
Q 1088 -75 661 373 
Q 234 822 234 1631 
Q 234 2469 665 2931 
Q 1097 3394 1784 3394 
Q 2450 3394 2872 2941 
Q 3294 2488 3294 1666 
Q 3294 1616 3291 1516 
L 816 1516 
Q 847 969 1125 678 
Q 1403 388 1819 388 
Q 2128 388 2347 550 
Q 2566 713 2694 1069 
z
M 847 1978 
L 2700 1978 
Q 2663 2397 2488 2606 
Q 2219 2931 1791 2931 
Q 1403 2931 1139 2672 
Q 875 2413 847 1978 
z
" transform="scale(0.015625)"/>
       <path id="ArialMT-20" transform="scale(0.015625)"/>
       <path id="ArialMT-43" d="M 3763 1606 
L 4369 1453 
Q 4178 706 3683 314 
Q 3188 -78 2472 -78 
Q 1731 -78 1267 223 
Q 803 525 561 1097 
Q 319 1669 319 2325 
Q 319 3041 592 3573 
Q 866 4106 1370 4382 
Q 1875 4659 2481 4659 
Q 3169 4659 3637 4309 
Q 4106 3959 4291 3325 
L 3694 3184 
Q 3534 3684 3231 3912 
Q 2928 4141 2469 4141 
Q 1941 4141 1586 3887 
Q 1231 3634 1087 3207 
Q 944 2781 944 2328 
Q 944 1744 1114 1308 
Q 1284 872 1643 656 
Q 2003 441 2422 441 
Q 2931 441 3284 734 
Q 3638 1028 3763 1606 
z
" transform="scale(0.015625)"/>
       <path id="ArialMT-73" d="M 197 991 
L 753 1078 
Q 800 744 1014 566 
Q 1228 388 1613 388 
Q 2000 388 2187 545 
Q 2375 703 2375 916 
Q 2375 1106 2209 1216 
Q 2094 1291 1634 1406 
Q 1016 1563 777 1677 
Q 538 1791 414 1992 
Q 291 2194 291 2438 
Q 291 2659 392 2848 
Q 494 3038 669 3163 
Q 800 3259 1026 3326 
Q 1253 3394 1513 3394 
Q 1903 3394 2198 3281 
Q 2494 3169 2634 2976 
Q 2775 2784 2828 2463 
L 2278 2388 
Q 2241 2644 2061 2787 
Q 1881 2931 1553 2931 
Q 1166 2931 1000 2803 
Q 834 2675 834 2503 
Q 834 2394 903 2306 
Q 972 2216 1119 2156 
Q 1203 2125 1616 2013 
Q 2213 1853 2448 1751 
Q 2684 1650 2818 1456 
Q 2953 1263 2953 975 
Q 2953 694 2789 445 
Q 2625 197 2315 61 
Q 2006 -75 1616 -75 
Q 969 -75 630 194 
Q 291 463 197 991 
z
" transform="scale(0.015625)"/>
      </defs>
      <use xlink:href="#ArialMT-53"/>
      <use xlink:href="#ArialMT-69" transform="translate(66.699219 0)"/>
      <use xlink:href="#ArialMT-6e" transform="translate(88.916016 0)"/>
      <use xlink:href="#ArialMT-67" transform="translate(144.53125 0)"/>
      <use xlink:href="#ArialMT-6c" transform="translate(200.146484 0)"/>
      <use xlink:href="#ArialMT-65" transform="translate(222.363281 0)"/>
      <use xlink:href="#ArialMT-20" transform="translate(277.978516 0)"/>
      <use xlink:href="#ArialMT-43" transform="translate(305.761719 0)"/>
      <use xlink:href="#ArialMT-65" transform="translate(377.978516 0)"/>
      <use xlink:href="#ArialMT-6c" transform="translate(433.59375 0)"/>
      <use xlink:href="#ArialMT-6c" transform="translate(455.810547 0)"/>
      <use xlink:href="#ArialMT-73" transform="translate(478.027344 0)"/>
     </g>
    </g>
   </g>
   <g id="matplotlib.axis_2">
    <g id="ytick_1">
     <g id="line2d_2">
      <defs>
       <path id="mc9964bb8e7" d="M 0 0 
L -3.5 0 
" style="stroke: #000000; stroke-width: 0.8"/>
      </defs>
      <g>
       <use xlink:href="#mc9964bb8e7" x="64.8" y="294.252135" style="stroke: #000000; stroke-width: 0.8"/>
      </g>
     </g>
     <g id="text_2">
      <!-- 0 -->
      <g transform="translate(47.790312 300.694166) scale(0.18 -0.18)">
       <defs>
        <path id="ArialMT-30" d="M 266 2259 
Q 266 3072 433 3567 
Q 600 4063 929 4331 
Q 1259 4600 1759 4600 
Q 2128 4600 2406 4451 
Q 2684 4303 2865 4023 
Q 3047 3744 3150 3342 
Q 3253 2941 3253 2259 
Q 3253 1453 3087 958 
Q 2922 463 2592 192 
Q 2263 -78 1759 -78 
Q 1097 -78 719 397 
Q 266 969 266 2259 
z
M 844 2259 
Q 844 1131 1108 757 
Q 1372 384 1759 384 
Q 2147 384 2411 759 
Q 2675 1134 2675 2259 
Q 2675 3391 2411 3762 
Q 2147 4134 1753 4134 
Q 1366 4134 1134 3806 
Q 844 3388 844 2259 
z
" transform="scale(0.015625)"/>
       </defs>
       <use xlink:href="#ArialMT-30"/>
      </g>
     </g>
    </g>
    <g id="ytick_2">
     <g id="line2d_3">
      <g>
       <use xlink:href="#mc9964bb8e7" x="64.8" y="245.150464" style="stroke: #000000; stroke-width: 0.8"/>
      </g>
     </g>
     <g id="text_3">
      <!-- 10000 -->
      <g transform="translate(7.751562 251.592495) scale(0.18 -0.18)">
       <defs>
        <path id="ArialMT-31" d="M 2384 0 
L 1822 0 
L 1822 3584 
Q 1619 3391 1289 3197 
Q 959 3003 697 2906 
L 697 3450 
Q 1169 3672 1522 3987 
Q 1875 4303 2022 4600 
L 2384 4600 
L 2384 0 
z
" transform="scale(0.015625)"/>
       </defs>
       <use xlink:href="#ArialMT-31"/>
       <use xlink:href="#ArialMT-30" transform="translate(55.615234 0)"/>
       <use xlink:href="#ArialMT-30" transform="translate(111.230469 0)"/>
       <use xlink:href="#ArialMT-30" transform="translate(166.845703 0)"/>
       <use xlink:href="#ArialMT-30" transform="translate(222.460938 0)"/>
      </g>
     </g>
    </g>
    <g id="ytick_3">
     <g id="line2d_4">
      <g>
       <use xlink:href="#mc9964bb8e7" x="64.8" y="196.048793" style="stroke: #000000; stroke-width: 0.8"/>
      </g>
     </g>
     <g id="text_4">
      <!-- 20000 -->
      <g transform="translate(7.751562 202.490825) scale(0.18 -0.18)">
       <defs>
        <path id="ArialMT-32" d="M 3222 541 
L 3222 0 
L 194 0 
Q 188 203 259 391 
Q 375 700 629 1000 
Q 884 1300 1366 1694 
Q 2113 2306 2375 2664 
Q 2638 3022 2638 3341 
Q 2638 3675 2398 3904 
Q 2159 4134 1775 4134 
Q 1369 4134 1125 3890 
Q 881 3647 878 3216 
L 300 3275 
Q 359 3922 746 4261 
Q 1134 4600 1788 4600 
Q 2447 4600 2831 4234 
Q 3216 3869 3216 3328 
Q 3216 3053 3103 2787 
Q 2991 2522 2730 2228 
Q 2469 1934 1863 1422 
Q 1356 997 1212 845 
Q 1069 694 975 541 
L 3222 541 
z
" transform="scale(0.015625)"/>
       </defs>
       <use xlink:href="#ArialMT-32"/>
       <use xlink:href="#ArialMT-30" transform="translate(55.615234 0)"/>
       <use xlink:href="#ArialMT-30" transform="translate(111.230469 0)"/>
       <use xlink:href="#ArialMT-30" transform="translate(166.845703 0)"/>
       <use xlink:href="#ArialMT-30" transform="translate(222.460938 0)"/>
      </g>
     </g>
    </g>
    <g id="ytick_4">
     <g id="line2d_5">
      <g>
       <use xlink:href="#mc9964bb8e7" x="64.8" y="146.947123" style="stroke: #000000; stroke-width: 0.8"/>
      </g>
     </g>
     <g id="text_5">
      <!-- 30000 -->
      <g transform="translate(7.751562 153.389154) scale(0.18 -0.18)">
       <defs>
        <path id="ArialMT-33" d="M 269 1209 
L 831 1284 
Q 928 806 1161 595 
Q 1394 384 1728 384 
Q 2125 384 2398 659 
Q 2672 934 2672 1341 
Q 2672 1728 2419 1979 
Q 2166 2231 1775 2231 
Q 1616 2231 1378 2169 
L 1441 2663 
Q 1497 2656 1531 2656 
Q 1891 2656 2178 2843 
Q 2466 3031 2466 3422 
Q 2466 3731 2256 3934 
Q 2047 4138 1716 4138 
Q 1388 4138 1169 3931 
Q 950 3725 888 3313 
L 325 3413 
Q 428 3978 793 4289 
Q 1159 4600 1703 4600 
Q 2078 4600 2393 4439 
Q 2709 4278 2876 4000 
Q 3044 3722 3044 3409 
Q 3044 3113 2884 2869 
Q 2725 2625 2413 2481 
Q 2819 2388 3044 2092 
Q 3269 1797 3269 1353 
Q 3269 753 2831 336 
Q 2394 -81 1725 -81 
Q 1122 -81 723 278 
Q 325 638 269 1209 
z
" transform="scale(0.015625)"/>
       </defs>
       <use xlink:href="#ArialMT-33"/>
       <use xlink:href="#ArialMT-30" transform="translate(55.615234 0)"/>
       <use xlink:href="#ArialMT-30" transform="translate(111.230469 0)"/>
       <use xlink:href="#ArialMT-30" transform="translate(166.845703 0)"/>
       <use xlink:href="#ArialMT-30" transform="translate(222.460938 0)"/>
      </g>
     </g>
    </g>
    <g id="ytick_5">
     <g id="line2d_6">
      <g>
       <use xlink:href="#mc9964bb8e7" x="64.8" y="97.845452" style="stroke: #000000; stroke-width: 0.8"/>
      </g>
     </g>
     <g id="text_6">
      <!-- 40000 -->
      <g transform="translate(7.751562 104.287484) scale(0.18 -0.18)">
       <defs>
        <path id="ArialMT-34" d="M 2069 0 
L 2069 1097 
L 81 1097 
L 81 1613 
L 2172 4581 
L 2631 4581 
L 2631 1613 
L 3250 1613 
L 3250 1097 
L 2631 1097 
L 2631 0 
L 2069 0 
z
M 2069 1613 
L 2069 3678 
L 634 1613 
L 2069 1613 
z
" transform="scale(0.015625)"/>
       </defs>
       <use xlink:href="#ArialMT-34"/>
       <use xlink:href="#ArialMT-30" transform="translate(55.615234 0)"/>
       <use xlink:href="#ArialMT-30" transform="translate(111.230469 0)"/>
       <use xlink:href="#ArialMT-30" transform="translate(166.845703 0)"/>
       <use xlink:href="#ArialMT-30" transform="translate(222.460938 0)"/>
      </g>
     </g>
    </g>
    <g id="ytick_6">
     <g id="line2d_7">
      <g>
       <use xlink:href="#mc9964bb8e7" x="64.8" y="48.743782" style="stroke: #000000; stroke-width: 0.8"/>
      </g>
     </g>
     <g id="text_7">
      <!-- 50000 -->
      <g transform="translate(7.751562 55.185813) scale(0.18 -0.18)">
       <defs>
        <path id="ArialMT-35" d="M 266 1200 
L 856 1250 
Q 922 819 1161 601 
Q 1400 384 1738 384 
Q 2144 384 2425 690 
Q 2706 997 2706 1503 
Q 2706 1984 2436 2262 
Q 2166 2541 1728 2541 
Q 1456 2541 1237 2417 
Q 1019 2294 894 2097 
L 366 2166 
L 809 4519 
L 3088 4519 
L 3088 3981 
L 1259 3981 
L 1013 2750 
Q 1425 3038 1878 3038 
Q 2478 3038 2890 2622 
Q 3303 2206 3303 1553 
Q 3303 931 2941 478 
Q 2500 -78 1738 -78 
Q 1113 -78 717 272 
Q 322 622 266 1200 
z
" transform="scale(0.015625)"/>
       </defs>
       <use xlink:href="#ArialMT-35"/>
       <use xlink:href="#ArialMT-30" transform="translate(55.615234 0)"/>
       <use xlink:href="#ArialMT-30" transform="translate(111.230469 0)"/>
       <use xlink:href="#ArialMT-30" transform="translate(166.845703 0)"/>
       <use xlink:href="#ArialMT-30" transform="translate(222.460938 0)"/>
      </g>
     </g>
    </g>
    <g id="text_8">
     <!-- UMIs per Cell -->
     <g transform="translate(1.366562 205.538437) rotate(-90) scale(0.12 -0.12)">
      <defs>
       <path id="ArialMT-55" d="M 3500 4581 
L 4106 4581 
L 4106 1934 
Q 4106 1244 3950 837 
Q 3794 431 3386 176 
Q 2978 -78 2316 -78 
Q 1672 -78 1262 144 
Q 853 366 678 786 
Q 503 1206 503 1934 
L 503 4581 
L 1109 4581 
L 1109 1938 
Q 1109 1341 1220 1058 
Q 1331 775 1601 622 
Q 1872 469 2263 469 
Q 2931 469 3215 772 
Q 3500 1075 3500 1938 
L 3500 4581 
z
" transform="scale(0.015625)"/>
       <path id="ArialMT-4d" d="M 475 0 
L 475 4581 
L 1388 4581 
L 2472 1338 
Q 2622 884 2691 659 
Q 2769 909 2934 1394 
L 4031 4581 
L 4847 4581 
L 4847 0 
L 4263 0 
L 4263 3834 
L 2931 0 
L 2384 0 
L 1059 3900 
L 1059 0 
L 475 0 
z
" transform="scale(0.015625)"/>
       <path id="ArialMT-49" d="M 597 0 
L 597 4581 
L 1203 4581 
L 1203 0 
L 597 0 
z
" transform="scale(0.015625)"/>
       <path id="ArialMT-70" d="M 422 -1272 
L 422 3319 
L 934 3319 
L 934 2888 
Q 1116 3141 1344 3267 
Q 1572 3394 1897 3394 
Q 2322 3394 2647 3175 
Q 2972 2956 3137 2557 
Q 3303 2159 3303 1684 
Q 3303 1175 3120 767 
Q 2938 359 2589 142 
Q 2241 -75 1856 -75 
Q 1575 -75 1351 44 
Q 1128 163 984 344 
L 984 -1272 
L 422 -1272 
z
M 931 1641 
Q 931 1000 1190 694 
Q 1450 388 1819 388 
Q 2194 388 2461 705 
Q 2728 1022 2728 1688 
Q 2728 2322 2467 2637 
Q 2206 2953 1844 2953 
Q 1484 2953 1207 2617 
Q 931 2281 931 1641 
z
" transform="scale(0.015625)"/>
       <path id="ArialMT-72" d="M 416 0 
L 416 3319 
L 922 3319 
L 922 2816 
Q 1116 3169 1280 3281 
Q 1444 3394 1641 3394 
Q 1925 3394 2219 3213 
L 2025 2691 
Q 1819 2813 1613 2813 
Q 1428 2813 1281 2702 
Q 1134 2591 1072 2394 
Q 978 2094 978 1738 
L 978 0 
L 416 0 
z
" transform="scale(0.015625)"/>
      </defs>
      <use xlink:href="#ArialMT-55"/>
      <use xlink:href="#ArialMT-4d" transform="translate(72.216797 0)"/>
      <use xlink:href="#ArialMT-49" transform="translate(155.517578 0)"/>
      <use xlink:href="#ArialMT-73" transform="translate(183.300781 0)"/>
      <use xlink:href="#ArialMT-20" transform="translate(233.300781 0)"/>
      <use xlink:href="#ArialMT-70" transform="translate(261.083984 0)"/>
      <use xlink:href="#ArialMT-65" transform="translate(316.699219 0)"/>
      <use xlink:href="#ArialMT-72" transform="translate(372.314453 0)"/>
      <use xlink:href="#ArialMT-20" transform="translate(405.615234 0)"/>
      <use xlink:href="#ArialMT-43" transform="translate(433.398438 0)"/>
      <use xlink:href="#ArialMT-65" transform="translate(505.615234 0)"/>
      <use xlink:href="#ArialMT-6c" transform="translate(561.230469 0)"/>
      <use xlink:href="#ArialMT-6c" transform="translate(583.447266 0)"/>
     </g>
    </g>
   </g>
   <g id="line2d_8">
    <path d="M 205.2 291.963997 
L 205.2 233.110734 
" clip-path="url(#p79daa27c11)" style="fill: none; stroke: #367cb7; stroke-width: 3; stroke-linecap: square"/>
   </g>
   <g id="line2d_9">
    <path d="M 205.2 276.19745 
L 205.2 258.962764 
" clip-path="url(#p79daa27c11)" style="fill: none; stroke: #367cb7; stroke-width: 9; stroke-linecap: square"/>
   </g>
   <g id="line2d_10">
    <path d="M 205.2 269.382139 
" clip-path="url(#p79daa27c11)" style="fill: none; stroke: #367cb7; stroke-width: 1.5; stroke-linecap: square"/>
    <defs>
     <path id="m74a30bb38d" d="M 3.75 0 
L -3.75 -0 
" style="stroke: #ffffff; stroke-width: 1.8"/>
    </defs>
    <g clip-path="url(#p79daa27c11)">
     <use xlink:href="#m74a30bb38d" x="205.2" y="269.382139" style="fill: #ffffff; stroke: #ffffff; stroke-width: 1.8"/>
    </g>
   </g>
   <g id="patch_3">
    <path d="M 64.8 306 
L 64.8 32.4 
" style="fill: none; stroke: #000000; stroke-width: 1.5; stroke-linejoin: miter; stroke-linecap: square"/>
   </g>
   <g id="patch_4">
    <path d="M 64.8 306 
L 345.6 306 
" style="fill: none; stroke: #000000; stroke-width: 1.5; stroke-linejoin: miter; stroke-linecap: square"/>
   </g>
  </g>
 </g>
 <defs>
  <clipPath id="p79daa27c11">
   <rect x="64.8" y="32.4" width="280.8" height="273.6"/>
  </clipPath>
 </defs>
</svg>
