<?xml version="1.0" encoding="utf-8" standalone="no"?>
<!DOCTYPE svg PUBLIC "-//W3C//DTD SVG 1.1//EN"
  "http://www.w3.org/Graphics/SVG/1.1/DTD/svg11.dtd">
<svg xmlns:xlink="http://www.w3.org/1999/xlink" width="360pt" height="360pt" viewBox="0 0 360 360" xmlns="http://www.w3.org/2000/svg" version="1.1">
 <metadata>
  <rdf:RDF xmlns:dc="http://purl.org/dc/elements/1.1/" xmlns:cc="http://creativecommons.org/ns#" xmlns:rdf="http://www.w3.org/1999/02/22-rdf-syntax-ns#">
   <cc:Work>
    <dc:type rdf:resource="http://purl.org/dc/dcmitype/StillImage"/>
    <dc:date>2025-02-07T14:25:21.408590</dc:date>
    <dc:format>image/svg+xml</dc:format>
    <dc:creator>
     <cc:Agent>
      <dc:title>Matplotlib v3.10.0, https://matplotlib.org/</dc:title>
     </cc:Agent>
    </dc:creator>
   </cc:Work>
  </rdf:RDF>
 </metadata>
 <defs>
  <style type="text/css">*{stroke-linejoin: round; stroke-linecap: butt}</style>
 </defs>
 <g id="figure_1">
  <g id="patch_1">
   <path d="M 0 360 
L 360 360 
L 360 0 
L 0 0 
z
" style="fill: #ffffff"/>
  </g>
  <g id="axes_1">
   <g id="patch_2">
    <path d="M 64.8 306 
L 345.6 306 
L 345.6 32.4 
L 64.8 32.4 
z
" style="fill: #ffffff"/>
   </g>
   <g id="FillBetweenPolyCollection_1">
    <defs>
     <path id="m0f10442d2d" d="M 205.203686 -66.436364 
L 205.196314 -66.436364 
L 205.074591 -68.94876 
L 204.57103 -71.461157 
L 200.032128 -73.973554 
L 176.174843 -76.48595 
L 119.984624 -78.998347 
L 95.125351 -81.510744 
L 92.88 -84.02314 
L 99.792052 -86.535537 
L 110.444256 -89.047934 
L 121.571851 -91.560331 
L 132.00451 -94.072727 
L 142.161222 -96.585124 
L 150.689097 -99.097521 
L 158.863463 -101.609917 
L 165.873707 -104.122314 
L 172.060284 -106.634711 
L 177.389579 -109.147107 
L 181.951156 -111.659504 
L 185.926985 -114.171901 
L 189.12065 -116.684298 
L 191.877402 -119.196694 
L 193.901881 -121.709091 
L 195.840066 -124.221488 
L 197.273968 -126.733884 
L 198.618552 -129.246281 
L 199.728544 -131.758678 
L 200.563018 -134.271074 
L 201.232587 -136.783471 
L 201.863783 -139.295868 
L 202.333066 -141.808264 
L 202.773582 -144.320661 
L 203.112584 -146.833058 
L 203.465064 -149.345455 
L 203.72657 -151.857851 
L 203.927031 -154.370248 
L 204.122352 -156.882645 
L 204.247051 -159.395041 
L 204.416248 -161.907438 
L 204.555796 -164.419835 
L 204.633373 -166.932231 
L 204.72832 -169.444628 
L 204.779021 -171.957025 
L 204.850984 -174.469421 
L 204.886567 -176.981818 
L 204.943706 -179.494215 
L 204.973612 -182.006612 
L 205.019294 -184.519008 
L 205.038331 -187.031405 
L 205.067032 -189.543802 
L 205.087732 -192.056198 
L 205.102282 -194.568595 
L 205.109974 -197.080992 
L 205.128674 -199.593388 
L 205.142826 -202.105785 
L 205.149631 -204.618182 
L 205.154027 -207.130579 
L 205.158185 -209.642975 
L 205.165452 -212.155372 
L 205.174992 -214.667769 
L 205.178724 -217.180165 
L 205.174027 -219.692562 
L 205.181017 -222.204959 
L 205.184154 -224.717355 
L 205.187128 -227.229752 
L 205.188998 -229.742149 
L 205.191951 -232.254545 
L 205.190053 -234.766942 
L 205.193895 -237.279339 
L 205.19618 -239.791736 
L 205.193552 -242.304132 
L 205.193876 -244.816529 
L 205.197223 -247.328926 
L 205.195371 -249.841322 
L 205.196876 -252.353719 
L 205.1967 -254.866116 
L 205.197352 -257.378512 
L 205.199442 -259.890909 
L 205.198978 -262.403306 
L 205.197319 -264.915702 
L 205.197441 -267.428099 
L 205.199167 -269.940496 
L 205.199047 -272.452893 
L 205.198761 -274.965289 
L 205.199544 -277.477686 
L 205.199844 -279.990083 
L 205.199752 -282.502479 
L 205.199245 -285.014876 
L 205.199219 -287.527273 
L 205.19991 -290.039669 
L 205.199479 -292.552066 
L 205.199184 -295.064463 
L 205.199858 -297.57686 
L 205.199198 -300.089256 
L 205.199997 -302.601653 
L 205.2 -305.11405 
L 205.2 -307.626446 
L 205.2 -310.138843 
L 205.199725 -312.65124 
L 205.199928 -315.163636 
L 205.200072 -315.163636 
L 205.200072 -315.163636 
L 205.200275 -312.65124 
L 205.2 -310.138843 
L 205.2 -307.626446 
L 205.2 -305.11405 
L 205.200003 -302.601653 
L 205.200802 -300.089256 
L 205.200142 -297.57686 
L 205.200816 -295.064463 
L 205.200521 -292.552066 
L 205.20009 -290.039669 
L 205.200781 -287.527273 
L 205.200755 -285.014876 
L 205.200248 -282.502479 
L 205.200156 -279.990083 
L 205.200456 -277.477686 
L 205.201239 -274.965289 
L 205.200953 -272.452893 
L 205.200833 -269.940496 
L 205.202559 -267.428099 
L 205.202681 -264.915702 
L 205.201022 -262.403306 
L 205.200558 -259.890909 
L 205.202648 -257.378512 
L 205.2033 -254.866116 
L 205.203124 -252.353719 
L 205.204629 -249.841322 
L 205.202777 -247.328926 
L 205.206124 -244.816529 
L 205.206448 -242.304132 
L 205.20382 -239.791736 
L 205.206105 -237.279339 
L 205.209947 -234.766942 
L 205.208049 -232.254545 
L 205.211002 -229.742149 
L 205.212872 -227.229752 
L 205.215846 -224.717355 
L 205.218983 -222.204959 
L 205.225973 -219.692562 
L 205.221276 -217.180165 
L 205.225008 -214.667769 
L 205.234548 -212.155372 
L 205.241815 -209.642975 
L 205.245973 -207.130579 
L 205.250369 -204.618182 
L 205.257174 -202.105785 
L 205.271326 -199.593388 
L 205.290026 -197.080992 
L 205.297718 -194.568595 
L 205.312268 -192.056198 
L 205.332968 -189.543802 
L 205.361669 -187.031405 
L 205.380706 -184.519008 
L 205.426388 -182.006612 
L 205.456294 -179.494215 
L 205.513433 -176.981818 
L 205.549016 -174.469421 
L 205.620979 -171.957025 
L 205.67168 -169.444628 
L 205.766627 -166.932231 
L 205.844204 -164.419835 
L 205.983752 -161.907438 
L 206.152949 -159.395041 
L 206.277648 -156.882645 
L 206.472969 -154.370248 
L 206.67343 -151.857851 
L 206.934936 -149.345455 
L 207.287416 -146.833058 
L 207.626418 -144.320661 
L 208.066934 -141.808264 
L 208.536217 -139.295868 
L 209.167413 -136.783471 
L 209.836982 -134.271074 
L 210.671456 -131.758678 
L 211.781448 -129.246281 
L 213.126032 -126.733884 
L 214.559934 -124.221488 
L 216.498119 -121.709091 
L 218.522598 -119.196694 
L 221.27935 -116.684298 
L 224.473015 -114.171901 
L 228.448844 -111.659504 
L 233.010421 -109.147107 
L 238.339716 -106.634711 
L 244.526293 -104.122314 
L 251.536537 -101.609917 
L 259.710903 -99.097521 
L 268.238778 -96.585124 
L 278.39549 -94.072727 
L 288.828149 -91.560331 
L 299.955744 -89.047934 
L 310.607948 -86.535537 
L 317.52 -84.02314 
L 315.274649 -81.510744 
L 290.415376 -78.998347 
L 234.225157 -76.48595 
L 210.367872 -73.973554 
L 205.82897 -71.461157 
L 205.325409 -68.94876 
L 205.203686 -66.436364 
z
" style="stroke: #367cb7; stroke-width: 2"/>
    </defs>
    <g clip-path="url(#p0f01eaa603)">
     <use xlink:href="#m0f10442d2d" x="0" y="360" style="fill: #edf6ff; stroke: #367cb7; stroke-width: 2"/>
    </g>
   </g>
   <g id="matplotlib.axis_1">
    <g id="xtick_1">
     <g id="line2d_1">
      <defs>
       <path id="m6837c0d797" d="M 0 0 
L 0 3.5 
" style="stroke: #000000; stroke-width: 0.8"/>
      </defs>
      <g>
       <use xlink:href="#m6837c0d797" x="205.2" y="306" style="stroke: #000000; stroke-width: 0.8"/>
      </g>
     </g>
    </g>
    <g id="text_1">
     <!-- Single Cells -->
     <g transform="translate(170.505937 326.118125) scale(0.12 -0.12)">
      <defs>
       <path id="DejaVuSans-53" d="M 3425 4513 
L 3425 3897 
Q 3066 4069 2747 4153 
Q 2428 4238 2131 4238 
Q 1616 4238 1336 4038 
Q 1056 3838 1056 3469 
Q 1056 3159 1242 3001 
Q 1428 2844 1947 2747 
L 2328 2669 
Q 3034 2534 3370 2195 
Q 3706 1856 3706 1288 
Q 3706 609 3251 259 
Q 2797 -91 1919 -91 
Q 1588 -91 1214 -16 
Q 841 59 441 206 
L 441 856 
Q 825 641 1194 531 
Q 1563 422 1919 422 
Q 2459 422 2753 634 
Q 3047 847 3047 1241 
Q 3047 1584 2836 1778 
Q 2625 1972 2144 2069 
L 1759 2144 
Q 1053 2284 737 2584 
Q 422 2884 422 3419 
Q 422 4038 858 4394 
Q 1294 4750 2059 4750 
Q 2388 4750 2728 4690 
Q 3069 4631 3425 4513 
z
" transform="scale(0.015625)"/>
       <path id="DejaVuSans-69" d="M 603 3500 
L 1178 3500 
L 1178 0 
L 603 0 
L 603 3500 
z
M 603 4863 
L 1178 4863 
L 1178 4134 
L 603 4134 
L 603 4863 
z
" transform="scale(0.015625)"/>
       <path id="DejaVuSans-6e" d="M 3513 2113 
L 3513 0 
L 2938 0 
L 2938 2094 
Q 2938 2591 2744 2837 
Q 2550 3084 2163 3084 
Q 1697 3084 1428 2787 
Q 1159 2491 1159 1978 
L 1159 0 
L 581 0 
L 581 3500 
L 1159 3500 
L 1159 2956 
Q 1366 3272 1645 3428 
Q 1925 3584 2291 3584 
Q 2894 3584 3203 3211 
Q 3513 2838 3513 2113 
z
" transform="scale(0.015625)"/>
       <path id="DejaVuSans-67" d="M 2906 1791 
Q 2906 2416 2648 2759 
Q 2391 3103 1925 3103 
Q 1463 3103 1205 2759 
Q 947 2416 947 1791 
Q 947 1169 1205 825 
Q 1463 481 1925 481 
Q 2391 481 2648 825 
Q 2906 1169 2906 1791 
z
M 3481 434 
Q 3481 -459 3084 -895 
Q 2688 -1331 1869 -1331 
Q 1566 -1331 1297 -1286 
Q 1028 -1241 775 -1147 
L 775 -588 
Q 1028 -725 1275 -790 
Q 1522 -856 1778 -856 
Q 2344 -856 2625 -561 
Q 2906 -266 2906 331 
L 2906 616 
Q 2728 306 2450 153 
Q 2172 0 1784 0 
Q 1141 0 747 490 
Q 353 981 353 1791 
Q 353 2603 747 3093 
Q 1141 3584 1784 3584 
Q 2172 3584 2450 3431 
Q 2728 3278 2906 2969 
L 2906 3500 
L 3481 3500 
L 3481 434 
z
" transform="scale(0.015625)"/>
       <path id="DejaVuSans-6c" d="M 603 4863 
L 1178 4863 
L 1178 0 
L 603 0 
L 603 4863 
z
" transform="scale(0.015625)"/>
       <path id="DejaVuSans-65" d="M 3597 1894 
L 3597 1613 
L 953 1613 
Q 991 1019 1311 708 
Q 1631 397 2203 397 
Q 2534 397 2845 478 
Q 3156 559 3463 722 
L 3463 178 
Q 3153 47 2828 -22 
Q 2503 -91 2169 -91 
Q 1331 -91 842 396 
Q 353 884 353 1716 
Q 353 2575 817 3079 
Q 1281 3584 2069 3584 
Q 2775 3584 3186 3129 
Q 3597 2675 3597 1894 
z
M 3022 2063 
Q 3016 2534 2758 2815 
Q 2500 3097 2075 3097 
Q 1594 3097 1305 2825 
Q 1016 2553 972 2059 
L 3022 2063 
z
" transform="scale(0.015625)"/>
       <path id="DejaVuSans-20" transform="scale(0.015625)"/>
       <path id="DejaVuSans-43" d="M 4122 4306 
L 4122 3641 
Q 3803 3938 3442 4084 
Q 3081 4231 2675 4231 
Q 1875 4231 1450 3742 
Q 1025 3253 1025 2328 
Q 1025 1406 1450 917 
Q 1875 428 2675 428 
Q 3081 428 3442 575 
Q 3803 722 4122 1019 
L 4122 359 
Q 3791 134 3420 21 
Q 3050 -91 2638 -91 
Q 1578 -91 968 557 
Q 359 1206 359 2328 
Q 359 3453 968 4101 
Q 1578 4750 2638 4750 
Q 3056 4750 3426 4639 
Q 3797 4528 4122 4306 
z
" transform="scale(0.015625)"/>
       <path id="DejaVuSans-73" d="M 2834 3397 
L 2834 2853 
Q 2591 2978 2328 3040 
Q 2066 3103 1784 3103 
Q 1356 3103 1142 2972 
Q 928 2841 928 2578 
Q 928 2378 1081 2264 
Q 1234 2150 1697 2047 
L 1894 2003 
Q 2506 1872 2764 1633 
Q 3022 1394 3022 966 
Q 3022 478 2636 193 
Q 2250 -91 1575 -91 
Q 1294 -91 989 -36 
Q 684 19 347 128 
L 347 722 
Q 666 556 975 473 
Q 1284 391 1588 391 
Q 1994 391 2212 530 
Q 2431 669 2431 922 
Q 2431 1156 2273 1281 
Q 2116 1406 1581 1522 
L 1381 1569 
Q 847 1681 609 1914 
Q 372 2147 372 2553 
Q 372 3047 722 3315 
Q 1072 3584 1716 3584 
Q 2034 3584 2315 3537 
Q 2597 3491 2834 3397 
z
" transform="scale(0.015625)"/>
      </defs>
      <use xlink:href="#DejaVuSans-53"/>
      <use xlink:href="#DejaVuSans-69" transform="translate(63.476562 0)"/>
      <use xlink:href="#DejaVuSans-6e" transform="translate(91.259766 0)"/>
      <use xlink:href="#DejaVuSans-67" transform="translate(154.638672 0)"/>
      <use xlink:href="#DejaVuSans-6c" transform="translate(218.115234 0)"/>
      <use xlink:href="#DejaVuSans-65" transform="translate(245.898438 0)"/>
      <use xlink:href="#DejaVuSans-20" transform="translate(307.421875 0)"/>
      <use xlink:href="#DejaVuSans-43" transform="translate(339.208984 0)"/>
      <use xlink:href="#DejaVuSans-65" transform="translate(409.033203 0)"/>
      <use xlink:href="#DejaVuSans-6c" transform="translate(470.556641 0)"/>
      <use xlink:href="#DejaVuSans-6c" transform="translate(498.339844 0)"/>
      <use xlink:href="#DejaVuSans-73" transform="translate(526.123047 0)"/>
     </g>
    </g>
   </g>
   <g id="matplotlib.axis_2">
    <g id="ytick_1">
     <g id="line2d_2">
      <defs>
       <path id="m8e2644cea7" d="M 0 0 
L -3.5 0 
" style="stroke: #000000; stroke-width: 0.8"/>
      </defs>
      <g>
       <use xlink:href="#m8e2644cea7" x="64.8" y="294.253045" style="stroke: #000000; stroke-width: 0.8"/>
      </g>
     </g>
     <g id="text_2">
      <!-- 0 -->
      <g transform="translate(46.3475 301.091638) scale(0.18 -0.18)">
       <defs>
        <path id="DejaVuSans-30" d="M 2034 4250 
Q 1547 4250 1301 3770 
Q 1056 3291 1056 2328 
Q 1056 1369 1301 889 
Q 1547 409 2034 409 
Q 2525 409 2770 889 
Q 3016 1369 3016 2328 
Q 3016 3291 2770 3770 
Q 2525 4250 2034 4250 
z
M 2034 4750 
Q 2819 4750 3233 4129 
Q 3647 3509 3647 2328 
Q 3647 1150 3233 529 
Q 2819 -91 2034 -91 
Q 1250 -91 836 529 
Q 422 1150 422 2328 
Q 422 3509 836 4129 
Q 1250 4750 2034 4750 
z
" transform="scale(0.015625)"/>
       </defs>
       <use xlink:href="#DejaVuSans-30"/>
      </g>
     </g>
    </g>
    <g id="ytick_2">
     <g id="line2d_3">
      <g>
       <use xlink:href="#m8e2644cea7" x="64.8" y="245.151017" style="stroke: #000000; stroke-width: 0.8"/>
      </g>
     </g>
     <g id="text_3">
      <!-- 10000 -->
      <g transform="translate(0.5375 251.98961) scale(0.18 -0.18)">
       <defs>
        <path id="DejaVuSans-31" d="M 794 531 
L 1825 531 
L 1825 4091 
L 703 3866 
L 703 4441 
L 1819 4666 
L 2450 4666 
L 2450 531 
L 3481 531 
L 3481 0 
L 794 0 
L 794 531 
z
" transform="scale(0.015625)"/>
       </defs>
       <use xlink:href="#DejaVuSans-31"/>
       <use xlink:href="#DejaVuSans-30" transform="translate(63.623047 0)"/>
       <use xlink:href="#DejaVuSans-30" transform="translate(127.246094 0)"/>
       <use xlink:href="#DejaVuSans-30" transform="translate(190.869141 0)"/>
       <use xlink:href="#DejaVuSans-30" transform="translate(254.492188 0)"/>
      </g>
     </g>
    </g>
    <g id="ytick_3">
     <g id="line2d_4">
      <g>
       <use xlink:href="#m8e2644cea7" x="64.8" y="196.048989" style="stroke: #000000; stroke-width: 0.8"/>
      </g>
     </g>
     <g id="text_4">
      <!-- 20000 -->
      <g transform="translate(0.5375 202.887583) scale(0.18 -0.18)">
       <defs>
        <path id="DejaVuSans-32" d="M 1228 531 
L 3431 531 
L 3431 0 
L 469 0 
L 469 531 
Q 828 903 1448 1529 
Q 2069 2156 2228 2338 
Q 2531 2678 2651 2914 
Q 2772 3150 2772 3378 
Q 2772 3750 2511 3984 
Q 2250 4219 1831 4219 
Q 1534 4219 1204 4116 
Q 875 4013 500 3803 
L 500 4441 
Q 881 4594 1212 4672 
Q 1544 4750 1819 4750 
Q 2544 4750 2975 4387 
Q 3406 4025 3406 3419 
Q 3406 3131 3298 2873 
Q 3191 2616 2906 2266 
Q 2828 2175 2409 1742 
Q 1991 1309 1228 531 
z
" transform="scale(0.015625)"/>
       </defs>
       <use xlink:href="#DejaVuSans-32"/>
       <use xlink:href="#DejaVuSans-30" transform="translate(63.623047 0)"/>
       <use xlink:href="#DejaVuSans-30" transform="translate(127.246094 0)"/>
       <use xlink:href="#DejaVuSans-30" transform="translate(190.869141 0)"/>
       <use xlink:href="#DejaVuSans-30" transform="translate(254.492188 0)"/>
      </g>
     </g>
    </g>
    <g id="ytick_4">
     <g id="line2d_5">
      <g>
       <use xlink:href="#m8e2644cea7" x="64.8" y="146.946961" style="stroke: #000000; stroke-width: 0.8"/>
      </g>
     </g>
     <g id="text_5">
      <!-- 30000 -->
      <g transform="translate(0.5375 153.785555) scale(0.18 -0.18)">
       <defs>
        <path id="DejaVuSans-33" d="M 2597 2516 
Q 3050 2419 3304 2112 
Q 3559 1806 3559 1356 
Q 3559 666 3084 287 
Q 2609 -91 1734 -91 
Q 1441 -91 1130 -33 
Q 819 25 488 141 
L 488 750 
Q 750 597 1062 519 
Q 1375 441 1716 441 
Q 2309 441 2620 675 
Q 2931 909 2931 1356 
Q 2931 1769 2642 2001 
Q 2353 2234 1838 2234 
L 1294 2234 
L 1294 2753 
L 1863 2753 
Q 2328 2753 2575 2939 
Q 2822 3125 2822 3475 
Q 2822 3834 2567 4026 
Q 2313 4219 1838 4219 
Q 1578 4219 1281 4162 
Q 984 4106 628 3988 
L 628 4550 
Q 988 4650 1302 4700 
Q 1616 4750 1894 4750 
Q 2613 4750 3031 4423 
Q 3450 4097 3450 3541 
Q 3450 3153 3228 2886 
Q 3006 2619 2597 2516 
z
" transform="scale(0.015625)"/>
       </defs>
       <use xlink:href="#DejaVuSans-33"/>
       <use xlink:href="#DejaVuSans-30" transform="translate(63.623047 0)"/>
       <use xlink:href="#DejaVuSans-30" transform="translate(127.246094 0)"/>
       <use xlink:href="#DejaVuSans-30" transform="translate(190.869141 0)"/>
       <use xlink:href="#DejaVuSans-30" transform="translate(254.492188 0)"/>
      </g>
     </g>
    </g>
    <g id="ytick_5">
     <g id="line2d_6">
      <g>
       <use xlink:href="#m8e2644cea7" x="64.8" y="97.844933" style="stroke: #000000; stroke-width: 0.8"/>
      </g>
     </g>
     <g id="text_6">
      <!-- 40000 -->
      <g transform="translate(0.5375 104.683527) scale(0.18 -0.18)">
       <defs>
        <path id="DejaVuSans-34" d="M 2419 4116 
L 825 1625 
L 2419 1625 
L 2419 4116 
z
M 2253 4666 
L 3047 4666 
L 3047 1625 
L 3713 1625 
L 3713 1100 
L 3047 1100 
L 3047 0 
L 2419 0 
L 2419 1100 
L 313 1100 
L 313 1709 
L 2253 4666 
z
" transform="scale(0.015625)"/>
       </defs>
       <use xlink:href="#DejaVuSans-34"/>
       <use xlink:href="#DejaVuSans-30" transform="translate(63.623047 0)"/>
       <use xlink:href="#DejaVuSans-30" transform="translate(127.246094 0)"/>
       <use xlink:href="#DejaVuSans-30" transform="translate(190.869141 0)"/>
       <use xlink:href="#DejaVuSans-30" transform="translate(254.492188 0)"/>
      </g>
     </g>
    </g>
    <g id="ytick_6">
     <g id="line2d_7">
      <g>
       <use xlink:href="#m8e2644cea7" x="64.8" y="48.742905" style="stroke: #000000; stroke-width: 0.8"/>
      </g>
     </g>
     <g id="text_7">
      <!-- 50000 -->
      <g transform="translate(0.5375 55.581499) scale(0.18 -0.18)">
       <defs>
        <path id="DejaVuSans-35" d="M 691 4666 
L 3169 4666 
L 3169 4134 
L 1269 4134 
L 1269 2991 
Q 1406 3038 1543 3061 
Q 1681 3084 1819 3084 
Q 2600 3084 3056 2656 
Q 3513 2228 3513 1497 
Q 3513 744 3044 326 
Q 2575 -91 1722 -91 
Q 1428 -91 1123 -41 
Q 819 9 494 109 
L 494 744 
Q 775 591 1075 516 
Q 1375 441 1709 441 
Q 2250 441 2565 725 
Q 2881 1009 2881 1497 
Q 2881 1984 2565 2268 
Q 2250 2553 1709 2553 
Q 1456 2553 1204 2497 
Q 953 2441 691 2322 
L 691 4666 
z
" transform="scale(0.015625)"/>
       </defs>
       <use xlink:href="#DejaVuSans-35"/>
       <use xlink:href="#DejaVuSans-30" transform="translate(63.623047 0)"/>
       <use xlink:href="#DejaVuSans-30" transform="translate(127.246094 0)"/>
       <use xlink:href="#DejaVuSans-30" transform="translate(190.869141 0)"/>
       <use xlink:href="#DejaVuSans-30" transform="translate(254.492188 0)"/>
      </g>
     </g>
    </g>
    <g id="text_8">
     <!-- UMIs per Cell -->
     <g transform="translate(-5.958125 208.660312) rotate(-90) scale(0.12 -0.12)">
      <defs>
       <path id="DejaVuSans-55" d="M 556 4666 
L 1191 4666 
L 1191 1831 
Q 1191 1081 1462 751 
Q 1734 422 2344 422 
Q 2950 422 3222 751 
Q 3494 1081 3494 1831 
L 3494 4666 
L 4128 4666 
L 4128 1753 
Q 4128 841 3676 375 
Q 3225 -91 2344 -91 
Q 1459 -91 1007 375 
Q 556 841 556 1753 
L 556 4666 
z
" transform="scale(0.015625)"/>
       <path id="DejaVuSans-4d" d="M 628 4666 
L 1569 4666 
L 2759 1491 
L 3956 4666 
L 4897 4666 
L 4897 0 
L 4281 0 
L 4281 4097 
L 3078 897 
L 2444 897 
L 1241 4097 
L 1241 0 
L 628 0 
L 628 4666 
z
" transform="scale(0.015625)"/>
       <path id="DejaVuSans-49" d="M 628 4666 
L 1259 4666 
L 1259 0 
L 628 0 
L 628 4666 
z
" transform="scale(0.015625)"/>
       <path id="DejaVuSans-70" d="M 1159 525 
L 1159 -1331 
L 581 -1331 
L 581 3500 
L 1159 3500 
L 1159 2969 
Q 1341 3281 1617 3432 
Q 1894 3584 2278 3584 
Q 2916 3584 3314 3078 
Q 3713 2572 3713 1747 
Q 3713 922 3314 415 
Q 2916 -91 2278 -91 
Q 1894 -91 1617 61 
Q 1341 213 1159 525 
z
M 3116 1747 
Q 3116 2381 2855 2742 
Q 2594 3103 2138 3103 
Q 1681 3103 1420 2742 
Q 1159 2381 1159 1747 
Q 1159 1113 1420 752 
Q 1681 391 2138 391 
Q 2594 391 2855 752 
Q 3116 1113 3116 1747 
z
" transform="scale(0.015625)"/>
       <path id="DejaVuSans-72" d="M 2631 2963 
Q 2534 3019 2420 3045 
Q 2306 3072 2169 3072 
Q 1681 3072 1420 2755 
Q 1159 2438 1159 1844 
L 1159 0 
L 581 0 
L 581 3500 
L 1159 3500 
L 1159 2956 
Q 1341 3275 1631 3429 
Q 1922 3584 2338 3584 
Q 2397 3584 2469 3576 
Q 2541 3569 2628 3553 
L 2631 2963 
z
" transform="scale(0.015625)"/>
      </defs>
      <use xlink:href="#DejaVuSans-55"/>
      <use xlink:href="#DejaVuSans-4d" transform="translate(73.193359 0)"/>
      <use xlink:href="#DejaVuSans-49" transform="translate(159.472656 0)"/>
      <use xlink:href="#DejaVuSans-73" transform="translate(188.964844 0)"/>
      <use xlink:href="#DejaVuSans-20" transform="translate(241.064453 0)"/>
      <use xlink:href="#DejaVuSans-70" transform="translate(272.851562 0)"/>
      <use xlink:href="#DejaVuSans-65" transform="translate(336.328125 0)"/>
      <use xlink:href="#DejaVuSans-72" transform="translate(397.851562 0)"/>
      <use xlink:href="#DejaVuSans-20" transform="translate(438.964844 0)"/>
      <use xlink:href="#DejaVuSans-43" transform="translate(470.751953 0)"/>
      <use xlink:href="#DejaVuSans-65" transform="translate(540.576172 0)"/>
      <use xlink:href="#DejaVuSans-6c" transform="translate(602.099609 0)"/>
      <use xlink:href="#DejaVuSans-6c" transform="translate(629.882812 0)"/>
     </g>
    </g>
   </g>
   <g id="line2d_8">
    <path d="M 205.2 291.96489 
L 205.2 233.101379 
" clip-path="url(#p0f01eaa603)" style="fill: none; stroke: #367cb7; stroke-width: 3; stroke-linecap: square"/>
   </g>
   <g id="line2d_9">
    <path d="M 205.2 276.198229 
L 205.2 258.958507 
" clip-path="url(#p0f01eaa603)" style="fill: none; stroke: #367cb7; stroke-width: 9; stroke-linecap: square"/>
   </g>
   <g id="line2d_10">
    <path d="M 205.2 269.382867 
" clip-path="url(#p0f01eaa603)" style="fill: none; stroke: #367cb7; stroke-width: 1.5; stroke-linecap: square"/>
    <defs>
     <path id="m4901c9a3fc" d="M 3.75 0 
L -3.75 -0 
" style="stroke: #ffffff; stroke-width: 1.8"/>
    </defs>
    <g clip-path="url(#p0f01eaa603)">
     <use xlink:href="#m4901c9a3fc" x="205.2" y="269.382867" style="fill: #ffffff; stroke: #ffffff; stroke-width: 1.8"/>
    </g>
   </g>
   <g id="patch_3">
    <path d="M 64.8 306 
L 64.8 32.4 
" style="fill: none; stroke: #000000; stroke-width: 1.5; stroke-linejoin: miter; stroke-linecap: square"/>
   </g>
   <g id="patch_4">
    <path d="M 64.8 306 
L 345.6 306 
" style="fill: none; stroke: #000000; stroke-width: 1.5; stroke-linejoin: miter; stroke-linecap: square"/>
   </g>
  </g>
 </g>
 <defs>
  <clipPath id="p0f01eaa603">
   <rect x="64.8" y="32.4" width="280.8" height="273.6"/>
  </clipPath>
 </defs>
</svg>
